# xmcd CD database file
#
# Track frame offsets:
#	150
#	12185
#	24910
#	38249
#	53998
#	71419
#	96324
#	117004
#	129282
#	144661
#	158174
#
# Disc length: 2294 seconds
#
# Revision: 1
# Processed by: cddbd v1.5PL3 Copyright (c) Steve Scherf et al.
# Submitted via: CDex 1.40Release
#
DISCID=8908f40b
DTITLE=Speedtrucker - The Curse
DYEAR=2003
DGENRE=Country
TTITLE0=Caffeine Thrill
TTITLE1=Move Along
TTITLE2=I Don't Think That I Drank
TTITLE3=Wrong Side
TTITLE4=Strike A Ride
TTITLE5=Mason Jar
TTITLE6=Hard Livin'
TTITLE7=Bitch
TTITLE8=Sad Song
TTITLE9=Someone To Leave Behind
TTITLE10=Poor Irene
EXTD=YEAR: 2003 ID3G: 2
EXTT0=
EXTT1=
EXTT2=
EXTT3=
EXTT4=
EXTT5=
EXTT6=
EXTT7=
EXTT8=
EXTT9=
EXTT10=
PLAYORDER=
